<?xml version="1.0" encoding="utf-8"?>
<!-- Generator: Adobe Illustrator 24.2.3, SVG Export Plug-In . SVG Version: 6.00 Build 0)  -->
<svg version="1.1"
	 id="svg731" inkscape:export-filename="G:\Users\suitedoalex\sites\senai-logo-0.png" inkscape:export-xdpi="25.4" inkscape:export-ydpi="25.4" inkscape:version="0.92.2 (5c3e80d, 2017-08-06)" sodipodi:docname="senai-logo.svg" xmlns:cc="http://creativecommons.org/ns#" xmlns:dc="http://purl.org/dc/elements/1.1/" xmlns:inkscape="http://www.inkscape.org/namespaces/inkscape" xmlns:rdf="http://www.w3.org/1999/02/22-rdf-syntax-ns#" xmlns:sodipodi="http://sodipodi.sourceforge.net/DTD/sodipodi-0.dtd" xmlns:svg="http://www.w3.org/2000/svg"
	 xmlns="http://www.w3.org/2000/svg" xmlns:xlink="http://www.w3.org/1999/xlink" x="0px" y="0px" viewBox="0 0 7164.8 837.9"
	 style="enable-background:new 0 0 7164.8 837.9;" xml:space="preserve">
<style type="text/css">
	.st0{fill-rule:evenodd;clip-rule:evenodd;fill:#005CAA;}
	.st1{fill-rule:evenodd;clip-rule:evenodd;fill:#FFFFFF;}
	.st2{fill:#005CAA;}
</style>
<sodipodi:namedview  bordercolor="#666666" borderopacity="1.0" id="base" inkscape:current-layer="layer1" inkscape:cx="10940.155" inkscape:cy="14100.589" inkscape:document-units="mm" inkscape:pageopacity="0.0" inkscape:pageshadow="2" inkscape:window-height="837" inkscape:window-maximized="1" inkscape:window-width="1600" inkscape:window-x="-8" inkscape:window-y="-8" inkscape:zoom="0.0109375" pagecolor="#ffffff" showgrid="false">
	</sodipodi:namedview>
<g id="layer1" transform="translate(0,3799)" inkscape:groupmode="layer" inkscape:label="Layer 1">
	<g id="rect246-1-2">
		
			<rect x="2057.8" y="-3799" inkscape:export-filename="G:\Users\suitedoalex\sites\senai-logo-7.png" inkscape:export-xdpi="4.8928313" inkscape:export-ydpi="4.8928313" class="st0" width="3268.2" height="837.9">
		</rect>
	</g>
	
		<g id="g74-6-4-0-5-8" transform="matrix(20.187964,0,0,-20.187964,1125.3978,-1886.1282)" inkscape:export-filename="G:\Users\suitedoalex\sites\senai-logo-7.png" inkscape:export-xdpi="4.8928313" inkscape:export-ydpi="4.8928313">
		<g id="path76-1-9-8-0-9">
			<path inkscape:connector-curvature="0" class="st1" d="M86,80c2,7-3.7,9.2-9.8,9.2c-6.1,0-12.6-1.9-14.3-8.8
				c-0.7-3.1,0.2-5.8,2.9-7.1c5.7-2.8,11.9-1.9,11.1-5.9c-0.4-1.9-3-2.9-4.9-2.9c-2.9,0-4.6,1.5-4,4.2h-8.1c-1.6-7.9,4-9.9,10.8-9.9
				c6.7,0,13.4,2.9,14.7,9.1c1.7,7.9-5.3,8.4-10,9.6c-2,0.6-4.5,1.3-4,3.4c0.3,1.5,2.2,2.7,4,2.7c1.4,0,2.4-0.3,2.9-0.9
				C78,82,78.2,81.2,78,80H86z M109.4,59.4l1.2,5.7H96.5l1.3,6.2h13l1.2,5.7H99l1.3,6h14.1l1.2,5.7H93.4l-6.2-29.2H109.4z M114,59.4
				h7.3l4.7,22.3h0.1l5.1-22.3h11.2l6.2,29.2h-7.3l-4.6-21.6l-0.1-0.1l-5.2,21.7h-11.3L114,59.4z M153.4,59.4l3.1,5.7h11.8l0.7-5.7
				h9.1l-5.3,29.2h-9.9l-17.7-29.2H153.4z M159.8,70.8l6.5,12.1h0.1l1.1-12.1L159.8,70.8z M189.4,59.4l6.2,29.2h-8.1l-6.2-29.2
				H189.4z"/>
		</g>
	</g>
	<g id="path78-5-8-5-3-2-6">
		
			<path inkscape:connector-curvature="0" inkscape:export-filename="G:\Users\suitedoalex\sites\senai-logo-7.png" inkscape:export-xdpi="4.8928313" inkscape:export-ydpi="4.8928313" class="st1" d="
			M2057.8-3388.8h171.3v17.5h-171.3V-3388.8z"/>
	</g>
	<g id="path80-4-6-9-0-8-0">
		
			<path inkscape:connector-curvature="0" inkscape:export-filename="G:\Users\suitedoalex\sites\senai-logo-7.png" inkscape:export-xdpi="4.8928313" inkscape:export-ydpi="4.8928313" class="st1" d="
			M2057.8-3530.5h171.3v17.5h-171.3V-3530.5z"/>
	</g>
	<g id="path82-2-7-1-3-7-8">
		
			<path inkscape:connector-curvature="0" inkscape:export-filename="G:\Users\suitedoalex\sites\senai-logo-7.png" inkscape:export-xdpi="4.8928313" inkscape:export-ydpi="4.8928313" class="st1" d="
			M2057.8-3672.1h171.3v17.5h-171.3V-3672.1z"/>
	</g>
	<g id="path84-3-4-3-1-5-9">
		
			<path inkscape:connector-curvature="0" inkscape:export-filename="G:\Users\suitedoalex\sites\senai-logo-7.png" inkscape:export-xdpi="4.8928313" inkscape:export-ydpi="4.8928313" class="st1" d="
			M2057.8-3247.2h171.3v17.5h-171.3V-3247.2z"/>
	</g>
	<g id="path86-5-3-4-9-4-6">
		
			<path inkscape:connector-curvature="0" inkscape:export-filename="G:\Users\suitedoalex\sites\senai-logo-7.png" inkscape:export-xdpi="4.8928313" inkscape:export-ydpi="4.8928313" class="st1" d="
			M2057.8-3105.5h171.3v17.5h-171.3V-3105.5z"/>
	</g>
	<g id="path78-5-8-5-3-2-6-4">
		
			<path inkscape:connector-curvature="0" inkscape:export-filename="G:\Users\suitedoalex\sites\senai-logo-7.png" inkscape:export-xdpi="4.8928313" inkscape:export-ydpi="4.8928313" class="st1" d="
			M5154.8-3388.8H5326v17.5h-171.3L5154.8-3388.8z"/>
	</g>
	<g id="path80-4-6-9-0-8-0-2">
		
			<path inkscape:connector-curvature="0" inkscape:export-filename="G:\Users\suitedoalex\sites\senai-logo-7.png" inkscape:export-xdpi="4.8928313" inkscape:export-ydpi="4.8928313" class="st1" d="
			M5154.8-3530.5H5326v17.5h-171.3L5154.8-3530.5z"/>
	</g>
	<g id="path82-2-7-1-3-7-8-3">
		
			<path inkscape:connector-curvature="0" inkscape:export-filename="G:\Users\suitedoalex\sites\senai-logo-7.png" inkscape:export-xdpi="4.8928313" inkscape:export-ydpi="4.8928313" class="st1" d="
			M5154.8-3672.1H5326v17.5h-171.3L5154.8-3672.1z"/>
	</g>
	<g id="path84-3-4-3-1-5-9-7">
		
			<path inkscape:connector-curvature="0" inkscape:export-filename="G:\Users\suitedoalex\sites\senai-logo-7.png" inkscape:export-xdpi="4.8928313" inkscape:export-ydpi="4.8928313" class="st1" d="
			M5154.8-3247.2H5326v17.5h-171.3L5154.8-3247.2z"/>
	</g>
	<g id="path86-5-3-4-9-4-6-3">
		
			<path inkscape:connector-curvature="0" inkscape:export-filename="G:\Users\suitedoalex\sites\senai-logo-7.png" inkscape:export-xdpi="4.8928313" inkscape:export-ydpi="4.8928313" class="st1" d="
			M5154.8-3105.5H5326v17.5h-171.3L5154.8-3105.5z"/>
	</g>
</g>
<g>
	<path class="st2" d="M-13.4,725.5L86.8,126.6h133.4c84,0,146,18.6,185.9,55.8c39.9,37.2,59.8,94.7,59.8,172.7
		c0,60.2-9.9,118.2-29.6,174.1c-19.7,55.9-45.1,98.9-76.2,129c-25.3,24.3-54.4,41.6-87.2,51.9c-32.8,10.3-84,15.4-153.7,15.4H-13.4z
		 M188.7,577.8c1.1,0.3,2.4,0.5,3.7,0.6c1.3,0.1,3.2,0.2,5.8,0.2c10.4,0,20.2-2.3,29.6-7c9.4-4.6,17.2-11.1,23.5-19.3
		c10.4-13.1,20.3-39.8,29.8-80.2c9.5-40.3,14.2-80.5,14.2-120.4c0-26-4.4-45-13.2-57.2c-8.8-12.2-23-18.9-42.5-20.3L188.7,577.8z"/>
	<path class="st2" d="M687.8,737.3c-59.6,0-107.5-20.5-143.8-61.5s-54.4-95.6-54.4-163.7c0-55.5,7.6-109.5,22.7-162
		c15.1-52.5,35.6-96.5,61.5-132.1c25.3-34.5,54.6-60.2,87.9-77.1c33.2-17,71.2-25.4,113.8-25.4c60.7,0,108.9,20.2,144.6,60.5
		c35.7,40.3,53.5,95.2,53.5,164.7c0,55.8-7.5,109.7-22.5,161.6c-15,52-35.6,96.1-61.7,132.5c-24.5,34.2-53.5,59.8-87,76.9
		C768.9,728.8,730.7,737.3,687.8,737.3z M666.6,525.7c0,22.4,3.2,38.8,9.5,49c6.3,10.3,16.4,15.4,30.2,15.4
		c12.4,0,23.1-4.6,32.2-13.9c9.1-9.3,17.2-24.2,24.4-44.7c9.5-26.5,17.2-58.6,23.1-96.2c5.9-37.6,8.9-73.3,8.9-107.3
		c0-22.4-3-38.9-9.1-49.4c-6-10.5-15.4-15.8-28.1-15.8c-13.5,0-25,4.6-34.3,13.7c-9.4,9.2-17.3,23.9-24,44.1
		c-9.5,27.6-17.3,60.4-23.5,98.4C669.7,457.1,666.6,492.6,666.6,525.7z"/>
	<path class="st2" d="M1146.7,126.6h175.7l-68.6,413c-12.1,71.9-32.9,122.8-62.4,152.8c-29.5,29.9-72.5,44.9-128.9,44.9
		c-20.7,0-40.7-2.1-60-6.4c-19.3-4.2-39-10.9-59.1-19.9l23.7-143.6c13,7.4,24.2,12.7,33.9,16c9.6,3.3,18.3,4.9,26.1,4.9
		c15.5,0,27.3-4.7,35.2-14.2c7.9-9.4,14.2-28,18.8-55.6L1146.7,126.6z"/>
	<path class="st2" d="M1516.3,737.3c-59.6,0-107.5-20.5-143.8-61.5s-54.4-95.6-54.4-163.7c0-55.5,7.6-109.5,22.7-162
		s35.6-96.5,61.5-132.1c25.3-34.5,54.6-60.2,87.9-77.1c33.2-17,71.2-25.4,113.8-25.4c60.7,0,108.9,20.2,144.6,60.5
		c35.7,40.3,53.5,95.2,53.5,164.7c0,55.8-7.5,109.7-22.5,161.6c-15,52-35.6,96.1-61.7,132.5c-24.5,34.2-53.5,59.8-87,76.9
		C1597.4,728.8,1559.2,737.3,1516.3,737.3z M1495.1,525.7c0,22.4,3.2,38.8,9.5,49c6.3,10.3,16.4,15.4,30.2,15.4
		c12.4,0,23.1-4.6,32.2-13.9c9.1-9.3,17.2-24.2,24.4-44.7c9.5-26.5,17.2-58.6,23.1-96.2c5.9-37.6,8.9-73.3,8.9-107.3
		c0-22.4-3-38.9-9.1-49.4c-6-10.5-15.4-15.8-28.1-15.8c-13.5,0-25,4.6-34.3,13.7c-9.4,9.2-17.3,23.9-24,44.1
		c-9.5,27.6-17.3,60.4-23.5,98.4C1498.2,457.1,1495.1,492.6,1495.1,525.7z"/>
</g>
<g>
	<path class="st2" d="M5671.3,126.6H5847l-68.6,413c-12.1,71.9-32.9,122.8-62.4,152.8c-29.5,29.9-72.5,44.9-128.9,44.9
		c-20.7,0-40.7-2.1-60-6.4c-19.3-4.2-39-10.9-59.1-19.9l23.7-143.6c13,7.4,24.2,12.7,33.9,16c9.6,3.3,18.3,4.9,26.1,4.9
		c15.5,0,27.3-4.7,35.2-14.2c7.9-9.4,14.2-28,18.8-55.6L5671.3,126.6z"/>
	<path class="st2" d="M5765.9,725.5l237-598.8h207.7l44.5,598.8h-177.9l0.9-88.2H5974l-27.6,88.2H5765.9z M6011.1,516.3h70.4
		l2.2-221.9L6011.1,516.3z"/>
	<path class="st2" d="M6317.2,126.6h175.3l0.9,391.3l130.8-391.3h175.3l-244.4,598.8h-193.4L6317.2,126.6z"/>
	<path class="st2" d="M6660,725.5l237-598.8h207.7l44.5,598.8h-177.9l0.9-88.2h-104.1l-27.6,88.2H6660z M6905.2,516.3h70.4
		l2.2-221.9L6905.2,516.3z"/>
</g>
<g>
</g>
</svg>
